<svg xmlns="http://www.w3.org/2000/svg" width="1760" height="1290" viewBox="0 0 1760 1290" role="img" aria-labelledby="t d" font-family="ui-sans-serif,-apple-system,Segoe UI,Roboto,Helvetica,Arial,sans-serif">
<title id="t">NestJS module dependency graph</title>
<desc id="d">Every module of the typed runtime and every import between them: the composition root, fifteen consumer modules, ten persistence and cross-cutting modules, and one database module, connected by the sixty-one edges extracted from the source.</desc>
<defs>
  <linearGradient id="bg" x1="0" y1="0" x2="1" y2="1"><stop offset="0" stop-color="#07111f"/><stop offset="0.55" stop-color="#0b1d2a"/><stop offset="1" stop-color="#102419"/></linearGradient>
  <linearGradient id="tg" x1="0" y1="0" x2="1" y2="0"><stop offset="0" stop-color="#53c7ff"/><stop offset="0.55" stop-color="#8de4d1"/><stop offset="1" stop-color="#f5d47a"/></linearGradient>
  <pattern id="grid" width="32" height="32" patternUnits="userSpaceOnUse"><path d="M 32 0 L 0 0 0 32" fill="none" stroke="#9dd7c8" stroke-opacity="0.05" stroke-width="1"/></pattern>
  <filter id="sh" x="-20%" y="-20%" width="140%" height="140%"><feDropShadow dx="0" dy="5" stdDeviation="7" flood-color="#000" flood-opacity="0.32"/></filter>
  <marker id="a1" markerWidth="9" markerHeight="9" refX="7.5" refY="4.5" orient="auto"><path d="M0,0 L9,4.5 L0,9 z" fill="#72cfd0"/></marker>
  <marker id="a2" markerWidth="9" markerHeight="9" refX="7.5" refY="4.5" orient="auto"><path d="M0,0 L9,4.5 L0,9 z" fill="#8de4d1"/></marker>
  <marker id="a3" markerWidth="9" markerHeight="9" refX="7.5" refY="4.5" orient="auto"><path d="M0,0 L9,4.5 L0,9 z" fill="#e9c46a"/></marker>
  <marker id="a4" markerWidth="9" markerHeight="9" refX="7.5" refY="4.5" orient="auto"><path d="M0,0 L9,4.5 L0,9 z" fill="#6d91a0"/></marker>
  <marker id="a5" markerWidth="9" markerHeight="9" refX="7.5" refY="4.5" orient="auto"><path d="M0,0 L9,4.5 L0,9 z" fill="#7f8fb5"/></marker>
  <style>
    .edge{fill:none;stroke:#72cfd0;stroke-width:1.9;stroke-opacity:.72;marker-end:url(#a1)}
    .edge-mint{fill:none;stroke:#8de4d1;stroke-width:1.9;stroke-opacity:.78;marker-end:url(#a2)}
    .edge-gold{fill:none;stroke:#e9c46a;stroke-width:2;stroke-opacity:.8;marker-end:url(#a3)}
    .edge-soft{fill:none;stroke:#6d91a0;stroke-width:1.7;stroke-dasharray:6 6;stroke-opacity:.6;marker-end:url(#a4)}
    .edge-bus{fill:none;stroke:#7f8fb5;stroke-width:1.8;stroke-opacity:.66;marker-end:url(#a5)}
    .trunk{fill:none;stroke:#7f8fb5;stroke-width:1.8;stroke-opacity:.5}
  </style>
</defs>
<rect width="1760" height="1290" fill="url(#bg)"/><rect width="1760" height="1290" fill="url(#grid)"/>
<path d="M230 590 H246 V205 H427" class="edge-gold"/>
<path d="M230 590 H274 V335 H427" class="edge-gold"/>
<path d="M230 590 H303 V400 H427" class="edge-gold"/>
<path d="M230 590 H331 V530 H427" class="edge-gold"/>
<path d="M230 590 H359 V790 H427" class="edge-gold"/>
<path d="M230 590 H388 V985 H427" class="edge-gold"/>
<path d="M230 590 H416 V1115 H427" class="edge-gold"/>
<path d="M135 470 V142 H1088 V508 H1177" class="edge-gold"/>
<path d="M135 470 V129 H1114 V205 H1177" class="edge-gold"/>
<path d="M135 470 V116 H1140 V645 H1517" class="edge-gold"/>
<path d="M740 205 H770 V205 H1177" class="edge"/>
<path d="M740 205 H784 V508 H1177" class="edge"/>
<path d="M740 270 H797 V306 H1177" class="edge"/>
<path d="M740 335 H811 V205 H1177" class="edge"/>
<path d="M740 335 H824 V407 H1177" class="edge"/>
<path d="M740 335 H838 V508 H1177" class="edge"/>
<path d="M740 400 H851 V306 H1177" class="edge"/>
<path d="M740 400 H865 V508 H1177" class="edge"/>
<path d="M740 400 H879 V609 H1177" class="edge"/>
<path d="M740 400 H892 V1014 H1177" class="edge"/>
<path d="M740 465 H906 V306 H1177" class="edge"/>
<path d="M740 465 H919 V609 H1177" class="edge"/>
<path d="M740 530 H933 V711 H1177" class="edge"/>
<path d="M740 595 H946 V812 H1177" class="edge"/>
<path d="M740 595 H960 V913 H1177" class="edge"/>
<path d="M740 595 H974 V1014 H1177" class="edge"/>
<path d="M740 660 H987 V913 H1177" class="edge"/>
<path d="M740 725 H1001 V1014 H1177" class="edge"/>
<path d="M740 790 H1014 V812 H1177" class="edge-mint"/>
<path d="M740 790 H1028 V913 H1177" class="edge-mint"/>
<path d="M740 790 H1041 V1014 H1177" class="edge-mint"/>
<path d="M740 790 H1055 V1115 H1177" class="edge-mint"/>
<path d="M740 855 H1069 V913 H1177" class="edge-mint"/>
<path d="M740 855 H1082 V1014 H1177" class="edge-mint"/>
<path d="M740 920 H1096 V1115 H1177" class="edge-mint"/>
<path d="M740 1050 H1109 V812 H1177" class="edge-soft"/>
<path d="M740 1050 H1123 V913 H1177" class="edge-soft"/>
<path d="M740 1050 H1136 V1014 H1177" class="edge-soft"/>
<path d="M740 1050 H1150 V1115 H1177" class="edge-soft"/>
<path d="M452 232 V270 H427" class="edge"/>
<path d="M452 817 V855 H427" class="edge-mint"/>
<path d="M452 817 V920 H427" class="edge-mint"/>
<path d="M585 492 V1216 H1330 V645 H1517" class="edge-gold"/>
<path d="M1478 205 V1115" class="trunk"/>
<path d="M1440 205 H1478" class="trunk"/>
<path d="M1440 306 H1478" class="trunk"/>
<path d="M1440 407 H1478" class="trunk"/>
<path d="M1440 508 H1478" class="trunk"/>
<path d="M1440 711 H1478" class="trunk"/>
<path d="M1440 812 H1478" class="trunk"/>
<path d="M1440 913 H1478" class="trunk"/>
<path d="M1440 1014 H1478" class="trunk"/>
<path d="M1440 1115 H1478" class="trunk"/>
<path d="M1478 660 H1517" class="edge-bus"/>
<path d="M740 985 H748" class="trunk"/>
<path d="M748 205 V1115" class="trunk"/>
<path d="M748 205 H1177" class="edge-bus"/>
<path d="M748 306 H1177" class="edge-bus"/>
<path d="M748 407 H1177" class="edge-bus"/>
<path d="M748 508 H1177" class="edge-bus"/>
<path d="M748 711 H1177" class="edge-bus"/>
<path d="M748 812 H1177" class="edge-bus"/>
<path d="M748 913 H1177" class="edge-bus"/>
<path d="M748 1014 H1177" class="edge-bus"/>
<path d="M748 1115 H1177" class="edge-bus"/>
<rect x="40" y="470" width="190" height="240" rx="9" fill="#13314a" stroke="#35678a" stroke-width="1.2" filter="url(#sh)"/>
<rect x="40" y="470" width="190" height="2.5" rx="1.2" fill="#f5d47a"/>
<text x="53" y="493" fill="#e6f1f8" font-size="13" font-weight="600">NewsAgentModule</text>
<text x="53" y="509" fill="#93b5c9" font-size="9.3">the composition root</text>
<text x="53" y="532" fill="#93b5c9" font-size="9.6">imports exactly ten modules</text>
<text x="53" y="549" fill="#93b5c9" font-size="9.6">and nothing else. Every gold</text>
<text x="53" y="566" fill="#93b5c9" font-size="9.6">line on this page starts here.</text>
<text x="53" y="583" fill="#93b5c9" font-size="9.6"></text>
<text x="53" y="600" fill="#93b5c9" font-size="9.6">Below it RuntimeModule starts</text>
<text x="53" y="617" fill="#93b5c9" font-size="9.6">telegram-polling, news-scheduler,</text>
<text x="53" y="634" fill="#93b5c9" font-size="9.6">telegram-news-jobs and</text>
<text x="53" y="651" fill="#93b5c9" font-size="9.6">runtime-health.</text>
<rect x="430" y="178" width="310" height="54" rx="9" fill="#172638" stroke="#2e4257" stroke-width="1.2" filter="url(#sh)"/>
<text x="443" y="201" fill="#e6f1f8" font-size="11.5" font-weight="600">telegram-control</text>
<text x="443" y="217" fill="#93b5c9" font-size="9.3">/news /settings /stats /status</text>
<rect x="430" y="243" width="310" height="54" rx="9" fill="#172638" stroke="#2e4257" stroke-width="1.2" filter="url(#sh)"/>
<text x="443" y="266" fill="#e6f1f8" font-size="11.5" font-weight="600">settings</text>
<text x="443" y="282" fill="#93b5c9" font-size="9.3">topics, language, schedule</text>
<rect x="430" y="308" width="310" height="54" rx="9" fill="#172638" stroke="#2e4257" stroke-width="1.2" filter="url(#sh)"/>
<text x="443" y="331" fill="#e6f1f8" font-size="11.5" font-weight="600">scheduler</text>
<text x="443" y="347" fill="#93b5c9" font-size="9.3">claim, defer, finish a run</text>
<rect x="430" y="373" width="310" height="54" rx="9" fill="#172638" stroke="#2e4257" stroke-width="1.2" filter="url(#sh)"/>
<text x="443" y="396" fill="#e6f1f8" font-size="11.5" font-weight="600">editorial</text>
<text x="443" y="412" fill="#93b5c9" font-size="9.3">draft, approve, publish</text>
<rect x="430" y="438" width="310" height="54" rx="9" fill="#172638" stroke="#2e4257" stroke-width="1.2" filter="url(#sh)"/>
<text x="443" y="461" fill="#e6f1f8" font-size="11.5" font-weight="600">publication-milestones</text>
<text x="443" y="477" fill="#93b5c9" font-size="9.3">subscriber on the event bus</text>
<rect x="430" y="503" width="310" height="54" rx="9" fill="#172638" stroke="#2e4257" stroke-width="1.2" filter="url(#sh)"/>
<text x="443" y="526" fill="#e6f1f8" font-size="11.5" font-weight="600">operations</text>
<text x="443" y="542" fill="#93b5c9" font-size="9.3">leases and the audit outbox</text>
<rect x="430" y="568" width="310" height="54" rx="9" fill="#172638" stroke="#2e4257" stroke-width="1.2" filter="url(#sh)"/>
<text x="443" y="591" fill="#e6f1f8" font-size="11.5" font-weight="600">research</text>
<text x="443" y="607" fill="#93b5c9" font-size="9.3">search runs and candidates</text>
<rect x="430" y="633" width="310" height="54" rx="9" fill="#172638" stroke="#2e4257" stroke-width="1.2" filter="url(#sh)"/>
<text x="443" y="656" fill="#e6f1f8" font-size="11.5" font-weight="600">catalog</text>
<text x="443" y="672" fill="#93b5c9" font-size="9.3">sources and topics</text>
<rect x="430" y="698" width="310" height="54" rx="9" fill="#172638" stroke="#2e4257" stroke-width="1.2" filter="url(#sh)"/>
<text x="443" y="721" fill="#e6f1f8" font-size="11.5" font-weight="600">usage</text>
<text x="443" y="737" fill="#93b5c9" font-size="9.3">spend and provider attempts</text>
<rect x="430" y="763" width="310" height="54" rx="9" fill="#17352e" stroke="#2f6a5b" stroke-width="1.2" filter="url(#sh)"/>
<rect x="430" y="763" width="310" height="2.5" rx="1.2" fill="#8de4d1"/>
<text x="443" y="786" fill="#e6f1f8" font-size="11.5" font-weight="600">typed-research-execution</text>
<text x="443" y="802" fill="#93b5c9" font-size="9.3">the wired research path</text>
<rect x="430" y="828" width="310" height="54" rx="9" fill="#17352e" stroke="#2f6a5b" stroke-width="1.2" filter="url(#sh)"/>
<rect x="430" y="828" width="310" height="2.5" rx="1.2" fill="#8de4d1"/>
<text x="443" y="851" fill="#e6f1f8" font-size="11.5" font-weight="600">source-acquisition</text>
<text x="443" y="867" fill="#93b5c9" font-size="9.3">rss . reddit . gdelt</text>
<rect x="430" y="893" width="310" height="54" rx="9" fill="#17352e" stroke="#2f6a5b" stroke-width="1.2" filter="url(#sh)"/>
<rect x="430" y="893" width="310" height="2.5" rx="1.2" fill="#8de4d1"/>
<text x="443" y="916" fill="#e6f1f8" font-size="11.5" font-weight="600">evidence-curation</text>
<text x="443" y="932" fill="#93b5c9" font-size="9.3">rank and deduplicate</text>
<rect x="430" y="958" width="310" height="54" rx="9" fill="#1a2c3e" stroke="#3c5f7d" stroke-width="1.2" filter="url(#sh)"/>
<rect x="430" y="958" width="310" height="2.5" rx="1.2" fill="#7f8fb5"/>
<text x="443" y="981" fill="#e6f1f8" font-size="11.5" font-weight="600">persistence-facade</text>
<text x="443" y="997" fill="#93b5c9" font-size="9.3">the NewsRepository-shaped surface</text>
<rect x="430" y="1023" width="310" height="54" rx="9" fill="#263020" stroke="#5c6b3a" stroke-width="1.2" filter="url(#sh)"/>
<rect x="430" y="1023" width="310" height="2.5" rx="1.2" fill="#e9c46a"/>
<text x="443" y="1046" fill="#e6f1f8" font-size="11.5" font-weight="600">legacy-research-execution</text>
<text x="443" y="1062" fill="#93b5c9" font-size="9.3">superseded - nothing imports it</text>
<rect x="430" y="1088" width="310" height="54" rx="9" fill="#17352e" stroke="#2f6a5b" stroke-width="1.2" filter="url(#sh)"/>
<rect x="430" y="1088" width="310" height="2.5" rx="1.2" fill="#8de4d1"/>
<text x="443" y="1111" fill="#e6f1f8" font-size="11.5" font-weight="600">ai-providers</text>
<text x="443" y="1127" fill="#93b5c9" font-size="9.3">openai - gemini - openrouter, with a breaker</text>
<rect x="1180" y="177" width="260" height="56" rx="9" fill="#172638" stroke="#2e4257" stroke-width="1.2" filter="url(#sh)"/>
<text x="1193" y="200" fill="#e6f1f8" font-size="11.5" font-weight="600">telegram</text>
<text x="1193" y="216" fill="#93b5c9" font-size="9.3">persistence . Drizzle repositories</text>
<rect x="1180" y="278" width="260" height="56" rx="9" fill="#172638" stroke="#2e4257" stroke-width="1.2" filter="url(#sh)"/>
<text x="1193" y="301" fill="#e6f1f8" font-size="11.5" font-weight="600">settings</text>
<text x="1193" y="317" fill="#93b5c9" font-size="9.3">persistence . Drizzle repositories</text>
<rect x="1180" y="379" width="260" height="56" rx="9" fill="#172638" stroke="#2e4257" stroke-width="1.2" filter="url(#sh)"/>
<text x="1193" y="402" fill="#e6f1f8" font-size="11.5" font-weight="600">scheduler</text>
<text x="1193" y="418" fill="#93b5c9" font-size="9.3">persistence . Drizzle repositories</text>
<rect x="1180" y="480" width="260" height="56" rx="9" fill="#172638" stroke="#2e4257" stroke-width="1.2" filter="url(#sh)"/>
<text x="1193" y="503" fill="#e6f1f8" font-size="11.5" font-weight="600">editorial</text>
<text x="1193" y="519" fill="#93b5c9" font-size="9.3">persistence . Drizzle repositories</text>
<rect x="1180" y="581" width="260" height="56" rx="9" fill="#1a2c3e" stroke="#3c5f7d" stroke-width="1.2" filter="url(#sh)"/>
<rect x="1180" y="581" width="260" height="2.5" rx="1.2" fill="#7f8fb5"/>
<text x="1193" y="604" fill="#e6f1f8" font-size="11.5" font-weight="600">editorial-integration-events</text>
<text x="1193" y="620" fill="#93b5c9" font-size="9.3">in-process event bus</text>
<rect x="1180" y="683" width="260" height="56" rx="9" fill="#172638" stroke="#2e4257" stroke-width="1.2" filter="url(#sh)"/>
<text x="1193" y="706" fill="#e6f1f8" font-size="11.5" font-weight="600">operations</text>
<text x="1193" y="722" fill="#93b5c9" font-size="9.3">persistence . Drizzle repositories</text>
<rect x="1180" y="784" width="260" height="56" rx="9" fill="#172638" stroke="#2e4257" stroke-width="1.2" filter="url(#sh)"/>
<text x="1193" y="807" fill="#e6f1f8" font-size="11.5" font-weight="600">research</text>
<text x="1193" y="823" fill="#93b5c9" font-size="9.3">persistence . Drizzle repositories</text>
<rect x="1180" y="885" width="260" height="56" rx="9" fill="#172638" stroke="#2e4257" stroke-width="1.2" filter="url(#sh)"/>
<text x="1193" y="908" fill="#e6f1f8" font-size="11.5" font-weight="600">catalog</text>
<text x="1193" y="924" fill="#93b5c9" font-size="9.3">persistence . Drizzle repositories</text>
<rect x="1180" y="986" width="260" height="56" rx="9" fill="#172638" stroke="#2e4257" stroke-width="1.2" filter="url(#sh)"/>
<text x="1193" y="1009" fill="#e6f1f8" font-size="11.5" font-weight="600">usage</text>
<text x="1193" y="1025" fill="#93b5c9" font-size="9.3">persistence . Drizzle repositories</text>
<rect x="1180" y="1087" width="260" height="56" rx="9" fill="#172638" stroke="#2e4257" stroke-width="1.2" filter="url(#sh)"/>
<text x="1193" y="1110" fill="#e6f1f8" font-size="11.5" font-weight="600">story-deduplication</text>
<text x="1193" y="1126" fill="#93b5c9" font-size="9.3">persistence . Drizzle repositories</text>
<rect x="1520" y="540" width="200" height="210" rx="9" fill="#0f2233" stroke="#3a6f8d" stroke-width="1.2" filter="url(#sh)"/>
<rect x="1520" y="540" width="200" height="2.5" rx="1.2" fill="#53c7ff"/>
<text x="1533" y="563" fill="#e6f1f8" font-size="13" font-weight="600">DatabaseModule</text>
<text x="1533" y="579" fill="#93b5c9" font-size="9.3">PG_POOL . DRIZZLE_DB</text>
<text x="1533" y="602" fill="#93b5c9" font-size="9.6">DATABASE_LIFECYCLE</text>
<text x="1533" y="618" fill="#93b5c9" font-size="9.6"></text>
<text x="1533" y="634" fill="#93b5c9" font-size="9.6">One pool. One Drizzle</text>
<text x="1533" y="650" fill="#93b5c9" font-size="9.6">provider. One owner of</text>
<text x="1533" y="666" fill="#93b5c9" font-size="9.6">shutdown.</text>
<text x="1533" y="682" fill="#93b5c9" font-size="9.6"></text>
<text x="1533" y="698" fill="#93b5c9" font-size="9.6">Every persistence module</text>
<text x="1533" y="714" fill="#93b5c9" font-size="9.6">depends on it, and on</text>
<text x="1533" y="730" fill="#93b5c9" font-size="9.6">nothing else - that is the</text>
<text x="1533" y="746" fill="#93b5c9" font-size="9.6">whole of layer zero.</text>
<text x="40" y="52" fill="url(#tg)" font-size="26" font-weight="700">NestJS module dependency graph</text>
<text x="40" y="78" fill="#8fb3c7" font-size="13">31 modules, 61 edges. Every line is an import that exists in the source; the picture is generated from it, so it cannot drift.</text>
<line x1="40" y1="104" x2="66" y2="104" stroke="#e9c46a" stroke-width="2.4"/>
<text x="74" y="108" fill="#8fb3c7" font-size="10.5">the composition root wires this</text>
<line x1="376" y1="104" x2="402" y2="104" stroke="#72cfd0" stroke-width="2.4"/>
<text x="410" y="108" fill="#8fb3c7" font-size="10.5">application depends on persistence</text>
<line x1="712" y1="104" x2="738" y2="104" stroke="#8de4d1" stroke-width="2.4"/>
<text x="746" y="108" fill="#8fb3c7" font-size="10.5">the research composition</text>
<line x1="1048" y1="104" x2="1074" y2="104" stroke="#7f8fb5" stroke-width="2.4"/>
<text x="1082" y="108" fill="#8fb3c7" font-size="10.5">a bus: one line, many endpoints</text>
<line x1="1384" y1="104" x2="1410" y2="104" stroke="#6d91a0" stroke-width="2.4"/>
<text x="1418" y="108" fill="#8fb3c7" font-size="10.5">superseded, still in the tree</text>
<text x="40" y="1252" fill="#7f9db1" font-size="11">Arrows point from the module that imports to the module it imports. The graph is acyclic and forwardRef-free by rule, and npm run test:architecture fails the build if that stops being true.</text>
<text x="40" y="1272" fill="#7f9db1" font-size="11">Read a column as a permission: nothing in persistence may point left, and nothing may point back into the root. legacy-research-execution has no inbound edge at all - typed-research-execution replaced it.</text>
</svg>
